<?xml version="1.0" encoding="us-ascii" standalone="no"?><svg xmlns="http://www.w3.org/2000/svg" xmlns:xlink="http://www.w3.org/1999/xlink" contentStyleType="text/css" height="388px" preserveAspectRatio="none" style="width:1113px;height:388px;background:#FFFFFF;" version="1.1" viewBox="0 0 1113 388" width="1113px" zoomAndPan="magnify"><defs/><g><rect fill="none" height="125.3516" style="stroke:#000000;stroke-width:1.5;" width="486" x="620" y="154.5156"/><line style="stroke:#181818;stroke-width:0.5;" x1="107" x2="107" y1="36.2969" y2="381.2813"/><line style="stroke:#181818;stroke-width:0.5;" x1="230" x2="230" y1="36.2969" y2="381.2813"/><line style="stroke:#181818;stroke-width:0.5;" x1="651" x2="651" y1="36.2969" y2="381.2813"/><line style="stroke:#181818;stroke-width:0.5;" x1="1061" x2="1061" y1="36.2969" y2="381.2813"/><rect fill="#E3E3E3" height="30.2969" rx="2.5" ry="2.5" style="stroke:#181818;stroke-width:0.5;" width="76" x="69" y="5"/><text fill="#000000" font-family="sans-serif" font-size="14" lengthAdjust="spacing" textLength="62" x="76" y="24.9951">End User</text><rect fill="#E3E3E3" height="30.2969" rx="2.5" ry="2.5" style="stroke:#181818;stroke-width:0.5;" width="150" x="155" y="5"/><text fill="#000000" font-family="sans-serif" font-size="14" lengthAdjust="spacing" textLength="136" x="162" y="24.9951">Device Application</text><rect fill="#E3E3E3" height="30.2969" rx="2.5" ry="2.5" style="stroke:#181818;stroke-width:0.5;" width="42" x="630" y="5"/><text fill="#000000" font-family="sans-serif" font-size="14" lengthAdjust="spacing" textLength="28" x="637" y="24.9951">LAA</text><rect fill="#E3E3E3" height="30.2969" rx="2.5" ry="2.5" style="stroke:#181818;stroke-width:0.5;" width="70" x="1026" y="5"/><text fill="#000000" font-family="sans-serif" font-size="14" lengthAdjust="spacing" textLength="56" x="1033" y="24.9951">SAM SM</text><rect fill="#FAFAFA" height="33" style="stroke:#181818;stroke-width:0.5;" width="328" x="5" y="51.2969"/><text fill="#000000" font-family="sans-serif" font-size="11" lengthAdjust="spacing" textLength="210" x="9" y="65.5073">End User deletes Device Application</text><text fill="#000000" font-family="sans-serif" font-size="11" lengthAdjust="spacing" textLength="320" x="9" y="78.312">containing or retrieving a delete script uri (file: or https:)</text><polygon fill="#181818" points="639,104.7109,649,108.7109,639,112.7109,643,108.7109" style="stroke:#181818;stroke-width:1.0;"/><line style="stroke:#181818;stroke-width:1.0;" x1="230" x2="645" y1="108.7109" y2="108.7109"/><text fill="#000000" font-family="sans-serif" font-size="11" lengthAdjust="spacing" textLength="397" x="242" y="104.1167">delete(sessionId, samServiceIdentifier, samSMFQDN, deleteScriptUri)</text><rect fill="#FAFAFA" height="20" style="stroke:#181818;stroke-width:0.5;" width="598" x="80" y="121.7109"/><text fill="#000000" font-family="sans-serif" font-size="11" lengthAdjust="spacing" textLength="225" x="266.5" y="135.9214">[1] End User interactions for user intent</text><path d="M620,154.5156 L686,154.5156 L686,161.6484 L676,171.6484 L620,171.6484 L620,154.5156 " fill="#EEEEEE" style="stroke:#000000;stroke-width:1.5;"/><rect fill="none" height="125.3516" style="stroke:#000000;stroke-width:1.5;" width="486" x="620" y="154.5156"/><text fill="#000000" font-family="sans-serif" font-size="13" font-weight="bold" lengthAdjust="spacing" textLength="21" x="635" y="167.5825">alt</text><text fill="#000000" font-family="sans-serif" font-size="11" font-weight="bold" lengthAdjust="spacing" textLength="180" x="701" y="166.7261">[choice sam sm uri (https)]</text><polygon fill="#181818" points="1049,186.4531,1059,190.4531,1049,194.4531,1053,190.4531" style="stroke:#181818;stroke-width:1.0;"/><line style="stroke:#181818;stroke-width:1.0;" x1="651" x2="1055" y1="190.4531" y2="190.4531"/><text fill="#000000" font-family="sans-serif" font-size="11" lengthAdjust="spacing" textLength="225" x="743.5" y="185.8589">delete(sessionId, samServiceIdentifier)</text><polygon fill="#181818" points="662,213.2578,652,217.2578,662,221.2578,658,217.2578" style="stroke:#181818;stroke-width:1.0;"/><line style="stroke:#181818;stroke-width:1.0;stroke-dasharray:2.0,2.0;" x1="656" x2="1060" y1="217.2578" y2="217.2578"/><text fill="#000000" font-family="sans-serif" font-size="11" lengthAdjust="spacing" textLength="187" x="762.5" y="212.6636">deleteResponse(deleteScriptUri)</text><line style="stroke:#000000;stroke-width:1.0;stroke-dasharray:2.0,2.0;" x1="620" x2="1106" y1="226.2578" y2="226.2578"/><text fill="#000000" font-family="sans-serif" font-size="11" font-weight="bold" lengthAdjust="spacing" textLength="139" x="625" y="236.4683">[choice file uri (file)]</text><line style="stroke:#181818;stroke-width:1.0;" x1="651" x2="693" y1="258.8672" y2="258.8672"/><line style="stroke:#181818;stroke-width:1.0;" x1="693" x2="693" y1="258.8672" y2="271.8672"/><line style="stroke:#181818;stroke-width:1.0;" x1="652" x2="693" y1="271.8672" y2="271.8672"/><polygon fill="#181818" points="662,267.8672,652,271.8672,662,275.8672,658,271.8672" style="stroke:#181818;stroke-width:1.0;"/><text fill="#000000" font-family="sans-serif" font-size="11" lengthAdjust="spacing" textLength="225" x="658" y="254.2729">delete(sessionId, samServiceIdentifier)</text><rect fill="#FAFAFA" height="20" style="stroke:#181818;stroke-width:0.5;" width="461" x="625" y="291.8672"/><text fill="#000000" font-family="sans-serif" font-size="11" lengthAdjust="spacing" textLength="353" x="679" y="306.0776">[2] Process executeGPSERAMScript(sessionId, deleteScriptUri)</text><polygon fill="#181818" points="241,332.4766,231,336.4766,241,340.4766,237,336.4766" style="stroke:#181818;stroke-width:1.0;"/><line style="stroke:#181818;stroke-width:1.0;stroke-dasharray:2.0,2.0;" x1="235" x2="650" y1="336.4766" y2="336.4766"/><text fill="#000000" font-family="sans-serif" font-size="11" lengthAdjust="spacing" textLength="299" x="291" y="331.8823">notification(sessionId, samServiceIdentifier, DELETE)</text><polygon fill="#181818" points="1049,359.2813,1059,363.2813,1049,367.2813,1053,363.2813" style="stroke:#181818;stroke-width:1.0;"/><line style="stroke:#181818;stroke-width:1.0;stroke-dasharray:2.0,2.0;" x1="651" x2="1055" y1="363.2813" y2="363.2813"/><text fill="#000000" font-family="sans-serif" font-size="11" lengthAdjust="spacing" textLength="386" x="663" y="358.687">notification(SAMSM_FQDN, sessionId, samServiceIdentifier, DELETE)</text><!--SRC=[ZLFBJiCm4BpxArOvjL8vb6CFI94Q4191GE2443BEjbtXs67jyFfwx2IbAOr4SqhisTcPsSs6IeILjVx5VWhtIgQMB2jm-DQWKPYZStADgQQr0ON68u-WKcRxSMwDB-WROJuVG8prE7vJMMFLXcs5uBd1mOsc5Meow3nBZ-ilS5PJAK1mP0FxZWn9PafuSCZ9398blfD2IEjQavAUh4a4n6SBWX8rUdHmY8GEgO96IORC6Ym3esSAqF0b-rfmYgdsq331P4KQ5n6uyRvsYwd0qAXL9yIO6ZWvWwiqXKLFDd4Xrt1nMSx0oQf0ZYMNPGYOLeJSdURdjylhMLzIjEqVcAP2x0KHU6C6ltbqVXxdJplt5EScLPJYmh0PcksfyKFfKdjG6nlLkpZUgdFRcfoAjbDqaXHf3aMU76qdr6vBJluaSOUk3gfmSk0IjSEjcfZtBlcXbFRbU1t1x6XwlRm-kzCdk66h0XdW9wh6uyLDaTsbUITlsEPGzYxEiB7HQhGykXIB-7S4OTtt_pknpAwo-smwfDrDOeyg71VvSxS-nzB-0000]--></g></svg>