<?xml version="1.0" encoding="us-ascii" standalone="no"?><svg xmlns="http://www.w3.org/2000/svg" xmlns:xlink="http://www.w3.org/1999/xlink" contentStyleType="text/css" height="321px" preserveAspectRatio="none" style="width:861px;height:321px;background:#FFFFFF;" version="1.1" viewBox="0 0 861 321" width="861px" zoomAndPan="magnify"><defs/><g><line style="stroke:#181818;stroke-width:0.5;" x1="43" x2="43" y1="36.2969" y2="314.5391"/><line style="stroke:#181818;stroke-width:0.5;" x1="301" x2="301" y1="36.2969" y2="314.5391"/><line style="stroke:#181818;stroke-width:0.5;" x1="505" x2="505" y1="36.2969" y2="314.5391"/><line style="stroke:#181818;stroke-width:0.5;" x1="582" x2="582" y1="36.2969" y2="314.5391"/><line style="stroke:#181818;stroke-width:0.5;" x1="701" x2="701" y1="36.2969" y2="314.5391"/><line style="stroke:#181818;stroke-width:0.5;" x1="820" x2="820" y1="36.2969" y2="314.5391"/><rect fill="#E3E3E3" height="30.2969" rx="2.5" ry="2.5" style="stroke:#181818;stroke-width:0.5;" width="76" x="5" y="5"/><text fill="#000000" font-family="sans-serif" font-size="14" lengthAdjust="spacing" textLength="62" x="12" y="24.9951">End User</text><rect fill="#E3E3E3" height="30.2969" rx="2.5" ry="2.5" style="stroke:#181818;stroke-width:0.5;" width="42" x="280" y="5"/><text fill="#000000" font-family="sans-serif" font-size="14" lengthAdjust="spacing" textLength="28" x="287" y="24.9951">LAA</text><rect fill="#E3E3E3" height="30.2969" rx="2.5" ry="2.5" style="stroke:#181818;stroke-width:0.5;" width="66" x="472" y="5"/><text fill="#000000" font-family="sans-serif" font-size="14" lengthAdjust="spacing" textLength="52" x="479" y="24.9951">ASP SD</text><rect fill="#E3E3E3" height="30.2969" rx="2.5" ry="2.5" style="stroke:#181818;stroke-width:0.5;" width="69" x="548" y="5"/><text fill="#000000" font-family="sans-serif" font-size="14" lengthAdjust="spacing" textLength="55" x="555" y="24.9951">SAM SD</text><rect fill="#E3E3E3" height="30.2969" rx="2.5" ry="2.5" style="stroke:#181818;stroke-width:0.5;" width="148" x="627" y="5"/><text fill="#000000" font-family="sans-serif" font-size="14" lengthAdjust="spacing" textLength="134" x="634" y="24.9951">Device application</text><rect fill="#E3E3E3" height="30.2969" rx="2.5" ry="2.5" style="stroke:#181818;stroke-width:0.5;" width="70" x="785" y="5"/><text fill="#000000" font-family="sans-serif" font-size="14" lengthAdjust="spacing" textLength="56" x="792" y="24.9951">SAM SM</text><polygon fill="#181818" points="289,61.1016,299,65.1016,289,69.1016,293,65.1016" style="stroke:#181818;stroke-width:1.0;"/><line style="stroke:#181818;stroke-width:1.0;" x1="43" x2="295" y1="65.1016" y2="65.1016"/><text fill="#000000" font-family="sans-serif" font-size="11" lengthAdjust="spacing" textLength="234" x="55" y="60.5073">deleteSAMService(samServiceIdentifier)</text><rect fill="#FAFAFA" height="20" style="stroke:#181818;stroke-width:0.5;" width="312" x="16" y="78.1016"/><text fill="#000000" font-family="sans-serif" font-size="11" lengthAdjust="spacing" textLength="225" x="59.5" y="92.312">[0] End User interactions for user intent</text><line style="stroke:#181818;stroke-width:1.0;" x1="301" x2="343" y1="122.7109" y2="122.7109"/><line style="stroke:#181818;stroke-width:1.0;" x1="343" x2="343" y1="122.7109" y2="135.7109"/><line style="stroke:#181818;stroke-width:1.0;" x1="302" x2="343" y1="135.7109" y2="135.7109"/><polygon fill="#181818" points="312,131.7109,302,135.7109,312,139.7109,308,135.7109" style="stroke:#181818;stroke-width:1.0;"/><text fill="#000000" font-family="sans-serif" font-size="11" lengthAdjust="spacing" textLength="106" x="308" y="118.1167">generateSession()</text><polygon fill="#181818" points="493,158.5156,503,162.5156,493,166.5156,497,162.5156" style="stroke:#181818;stroke-width:1.0;"/><line style="stroke:#181818;stroke-width:1.0;" x1="301" x2="499" y1="162.5156" y2="162.5156"/><text fill="#000000" font-family="sans-serif" font-size="11" lengthAdjust="spacing" textLength="180" x="313" y="157.9214">GET_DATA(SAMServiceInfoTag)</text><polygon fill="#181818" points="312,185.3203,302,189.3203,312,193.3203,308,189.3203" style="stroke:#181818;stroke-width:1.0;"/><line style="stroke:#181818;stroke-width:1.0;stroke-dasharray:2.0,2.0;" x1="306" x2="504" y1="189.3203" y2="189.3203"/><text fill="#000000" font-family="sans-serif" font-size="11" lengthAdjust="spacing" textLength="178" x="314" y="184.7261">SAMServiceInfo(SAMSM_FQDN)</text><polygon fill="#181818" points="570.5,212.125,580.5,216.125,570.5,220.125,574.5,216.125" style="stroke:#181818;stroke-width:1.0;"/><line style="stroke:#181818;stroke-width:1.0;" x1="301" x2="576.5" y1="216.125" y2="216.125"/><text fill="#000000" font-family="sans-serif" font-size="11" lengthAdjust="spacing" textLength="199" x="342.25" y="211.5308">DELETE_SAM_SERVICES(aspSDAid)</text><polygon fill="#181818" points="312,238.9297,302,242.9297,312,246.9297,308,242.9297" style="stroke:#181818;stroke-width:1.0;"/><line style="stroke:#181818;stroke-width:1.0;stroke-dasharray:2.0,2.0;" x1="306" x2="581.5" y1="242.9297" y2="242.9297"/><text fill="#000000" font-family="sans-serif" font-size="11" lengthAdjust="spacing" textLength="103" x="390.25" y="238.3354">deleteStatusWord</text><polygon fill="#181818" points="689,265.7344,699,269.7344,689,273.7344,693,269.7344" style="stroke:#181818;stroke-width:1.0;"/><line style="stroke:#181818;stroke-width:1.0;stroke-dasharray:2.0,2.0;" x1="301" x2="695" y1="269.7344" y2="269.7344"/><text fill="#000000" font-family="sans-serif" font-size="11" lengthAdjust="spacing" textLength="299" x="351.5" y="265.1401">notification(sessionId, samServiceIdentifier, DELETE)</text><polygon fill="#181818" points="808,292.5391,818,296.5391,808,300.5391,812,296.5391" style="stroke:#181818;stroke-width:1.0;"/><line style="stroke:#181818;stroke-width:1.0;stroke-dasharray:2.0,2.0;" x1="301" x2="814" y1="296.5391" y2="296.5391"/><text fill="#000000" font-family="sans-serif" font-size="11" lengthAdjust="spacing" textLength="386" x="367.5" y="291.9448">notification(SAMSM_FQDN, sessionId, samServiceIdentifier, DELETE)</text><!--SRC=[ZL3BJiCm4BpxArOv9L8hqMiFI1P9KQK60GvmG2WoyIQrIEnWk-NnzTXf-a3qW2-sTsTdPcSj1KAjjNlLdyI-ITLpmpkm-Bv1LM6Erl86QIiR1HKgX-OCYXgZFnPQEIQ_4MQp4uZI3iztEgrqjJQwGt1cWoUTLjROIeNM6Uwm-GAhMoa8a2XJ0XuicWYcbn2jA8rW3W9RTCXepj1iPOMnvTtuN0flMTOIJKByl0bkG6_Hx8OdS6Ga4CxpnGliIo33khnoKYlhCpAmsLUL8-XH0nyXdYhu2TSS6bGOR3EVd1-CaqC_ekmMM1eiNsT5cTA2naVNIrNhWZS9ES2c1yxVg64eBnTtwKq2GCWkXo3W6wD0cgso8YjzeMJP_UFoAcCnjprBgHI93tAFF6gCAJhkDlP96n7o6em7uXI3EF2-RsN5Go11n6_liztzOxlRToacS2x_oMWfEQKTNEH_g8xxUQv_qlu0]--></g></svg>