<?xml version="1.0" encoding="us-ascii" standalone="no"?><svg xmlns="http://www.w3.org/2000/svg" xmlns:xlink="http://www.w3.org/1999/xlink" contentStyleType="text/css" height="373px" preserveAspectRatio="none" style="width:1200px;height:373px;background:#FFFFFF;" version="1.1" viewBox="0 0 1200 373" width="1200px" zoomAndPan="magnify"><defs/><g><line style="stroke:#181818;stroke-width:0.5;" x1="72" x2="72" y1="36.2969" y2="366.1484"/><line style="stroke:#181818;stroke-width:0.5;" x1="194" x2="194" y1="36.2969" y2="366.1484"/><line style="stroke:#181818;stroke-width:0.5;" x1="627" x2="627" y1="36.2969" y2="366.1484"/><line style="stroke:#181818;stroke-width:0.5;" x1="692" x2="692" y1="36.2969" y2="366.1484"/><line style="stroke:#181818;stroke-width:0.5;" x1="979" x2="979" y1="36.2969" y2="366.1484"/><rect fill="#E3E3E3" height="30.2969" rx="2.5" ry="2.5" style="stroke:#181818;stroke-width:0.5;" width="76" x="34" y="5"/><text fill="#000000" font-family="sans-serif" font-size="14" lengthAdjust="spacing" textLength="62" x="41" y="24.9951">End User</text><rect fill="#E3E3E3" height="30.2969" rx="2.5" ry="2.5" style="stroke:#181818;stroke-width:0.5;" width="148" x="120" y="5"/><text fill="#000000" font-family="sans-serif" font-size="14" lengthAdjust="spacing" textLength="134" x="127" y="24.9951">Device application</text><rect fill="#E3E3E3" height="30.2969" rx="2.5" ry="2.5" style="stroke:#181818;stroke-width:0.5;" width="42" x="606" y="5"/><text fill="#000000" font-family="sans-serif" font-size="14" lengthAdjust="spacing" textLength="28" x="613" y="24.9951">LAA</text><rect fill="#E3E3E3" height="30.2969" rx="2.5" ry="2.5" style="stroke:#181818;stroke-width:0.5;" width="69" x="658" y="5"/><text fill="#000000" font-family="sans-serif" font-size="14" lengthAdjust="spacing" textLength="55" x="665" y="24.9951">SAM SD</text><rect fill="#E3E3E3" height="30.2969" rx="2.5" ry="2.5" style="stroke:#181818;stroke-width:0.5;" width="70" x="944" y="5"/><text fill="#000000" font-family="sans-serif" font-size="14" lengthAdjust="spacing" textLength="56" x="951" y="24.9951">SAM SM</text><rect fill="#FAFAFA" height="33" style="stroke:#181818;stroke-width:0.5;" width="257" x="5" y="51.2969"/><text fill="#000000" font-family="sans-serif" font-size="11" lengthAdjust="spacing" textLength="249" x="9" y="65.5073">"End User installs a new Device Application</text><text fill="#000000" font-family="sans-serif" font-size="11" lengthAdjust="spacing" textLength="206" x="13" y="78.312">looking for a SAM script on SAM SM"</text><polygon fill="#181818" points="615,104.7109,625,108.7109,615,112.7109,619,108.7109" style="stroke:#181818;stroke-width:1.0;"/><line style="stroke:#181818;stroke-width:1.0;" x1="194" x2="621" y1="108.7109" y2="108.7109"/><text fill="#000000" font-family="sans-serif" font-size="11" lengthAdjust="spacing" textLength="409" x="206" y="104.1167">install(sessionId, samServiceIdentifier, samSMFQDN, localScriptUri=null)</text><rect fill="#FAFAFA" height="20" style="stroke:#181818;stroke-width:0.5;" width="195" x="562" y="121.7109"/><text fill="#000000" font-family="sans-serif" font-size="11" lengthAdjust="spacing" textLength="187" x="566" y="135.9214">[0] Process getSAMEligibilityData</text><polygon fill="#181818" points="967,162.3203,977,166.3203,967,170.3203,971,166.3203" style="stroke:#181818;stroke-width:1.0;"/><line style="stroke:#181818;stroke-width:1.0;" x1="627" x2="973" y1="166.3203" y2="166.3203"/><text fill="#000000" font-family="sans-serif" font-size="11" lengthAdjust="spacing" textLength="328" x="639" y="161.7261">install(sessionId, samServiceIdentifier, samEligibilityData)</text><line style="stroke:#181818;stroke-width:1.0;" x1="979" x2="1021" y1="193.125" y2="193.125"/><line style="stroke:#181818;stroke-width:1.0;" x1="1021" x2="1021" y1="193.125" y2="206.125"/><line style="stroke:#181818;stroke-width:1.0;" x1="980" x2="1021" y1="206.125" y2="206.125"/><polygon fill="#181818" points="990,202.125,980,206.125,990,210.125,986,206.125" style="stroke:#181818;stroke-width:1.0;"/><text fill="#000000" font-family="sans-serif" font-size="11" lengthAdjust="spacing" textLength="207" x="986" y="188.5308">retrieveOrGenerateScript(sessionId)</text><polygon fill="#181818" points="638,228.9297,628,232.9297,638,236.9297,634,232.9297" style="stroke:#181818;stroke-width:1.0;"/><line style="stroke:#181818;stroke-width:1.0;stroke-dasharray:2.0,2.0;" x1="632" x2="978" y1="232.9297" y2="232.9297"/><text fill="#000000" font-family="sans-serif" font-size="11" lengthAdjust="spacing" textLength="195" x="705.5" y="228.3354">installResponse(gpseramInstallUri)</text><rect fill="#FAFAFA" height="20" style="stroke:#181818;stroke-width:0.5;" width="609" x="45" y="245.9297"/><text fill="#000000" font-family="sans-serif" font-size="11" lengthAdjust="spacing" textLength="225" x="237" y="260.1401">[1] End User interactions for user intent</text><rect fill="#FAFAFA" height="20" style="stroke:#181818;stroke-width:0.5;" width="403" x="601" y="276.7344"/><text fill="#000000" font-family="sans-serif" font-size="11" lengthAdjust="spacing" textLength="366" x="619.5" y="290.9448">[2] Process executeGPSERAMScript(sessionId, gpseramInstallUri)</text><polygon fill="#181818" points="205,317.3438,195,321.3438,205,325.3438,201,321.3438" style="stroke:#181818;stroke-width:1.0;"/><line style="stroke:#181818;stroke-width:1.0;stroke-dasharray:2.0,2.0;" x1="199" x2="626" y1="321.3438" y2="321.3438"/><text fill="#000000" font-family="sans-serif" font-size="11" lengthAdjust="spacing" textLength="302" x="259.5" y="316.7495">notification(sessionId, samServiceIdentifier, INSTALL)</text><polygon fill="#181818" points="967,344.1484,977,348.1484,967,352.1484,971,348.1484" style="stroke:#181818;stroke-width:1.0;"/><line style="stroke:#181818;stroke-width:1.0;stroke-dasharray:2.0,2.0;" x1="627" x2="973" y1="348.1484" y2="348.1484"/><text fill="#000000" font-family="sans-serif" font-size="11" lengthAdjust="spacing" textLength="302" x="652" y="343.5542">notification(sessionId, samServiceIdentifier, INSTALL)</text><!--SRC=[dLDDJ-Cm4BtxLunoebAHjXoHM2bI2whKi42M4-BWEjCmmh6pOwV0_lgraxHDgw0Lv6RFp9ltuRnGWR2nrg_jkt2lP6h9iWA7Vneq2ZDqJfQOQYeDA3GUUQGhPRPlrzRudFuYp6Q35cCzZbSgQwnwOLiXU6vmKD6qGKq6dMVfiVm0PpKL0WH7DB1RP4WMfe17XvnC8PdZbXI2h6jDIdgo9X4GltqNa75UQkr0Wi4tw2VImqGt0DhQmACCbd1epTCCd6AgFLZJdl8i4HX0Mof2ZAs6yv-mIbEut2qzSy75K5aMKt2oof7ZpB88TjA6aBlRxFf-VZiD19JKURlpaUdAD5fFn97oW1r5jspclT2d7yzmnrQ5HL2Y3xL5Y8pMfCb_pAMNHwGZGcIPz8g-IFK4UYBsECUOZ9u9j_YBRz1WpBBJTLWo73rrxG5TROt3ix8E0SfgsLq7KoOdJw4tPFyYUajcpp28FxnSgM8-hisssTqQFx06FZKwsw5U78p6TrIDnvkxVF6GPgVQfZ12VBWggesgHz_GPVnpWkNT-V-nB6_pt-bgDHdY7fBu7jO_]--></g></svg>